<?xml version="1.0" encoding="UTF-8" standalone="no"?>
<svg
   xmlnsDc="http://purl.org/dc/elements/1.1/"
   xmlnsCc="http://creativecommons.org/ns#"
   xmlnsRdf="http://www.w3.org/1999/02/22-rdf-syntax-ns#"
   xmlnsSvg="http://www.w3.org/2000/svg"
   xmlns="http://www.w3.org/2000/svg"
   xmlnsXlink="http://www.w3.org/1999/xlink"
   id="svg4178"
   version="1.1"
   viewBox="0 0 132.29167 132.29167"
   height="500"
   width="500">
  <defs
     id="defs4172">
    <linearGradient
       id="linearGradient11301">
      <stop
         style="stop-color:#ffe052;stop-opacity:1"
         offset="0"
         id="stop11303" />
      <stop
         style="stop-color:#ffc331;stop-opacity:1"
         offset="1"
         id="stop11305" />
    </linearGradient>
    <linearGradient
       xlinkHref="#linearGradient11301"
       id="linearGradient11307"
       x1="89.136749"
       y1="111.92053"
       x2="147.77737"
       y2="168.1012"
       gradientUnits="userSpaceOnUse" />
    <linearGradient
       id="linearGradient9515">
      <stop
         style="stop-color:#387eb8;stop-opacity:1"
         offset="0"
         id="stop9517" />
      <stop
         style="stop-color:#366994;stop-opacity:1"
         offset="1"
         id="stop9519" />
    </linearGradient>
    <linearGradient
       xlinkHref="#linearGradient9515"
       id="linearGradient9521"
       x1="55.549179"
       y1="77.070274"
       x2="110.14919"
       y2="131.85291"
       gradientUnits="userSpaceOnUse" />
  </defs>
  <metadata
     id="metadata4175">
    <rdfRDF>
      <ccWork
         rdfAbout="">
        <dcFormat>image/svg+xml</dcFormat>
        <dcType
           rdfResource="http://purl.org/dc/dcmitype/StillImage" />
        <dcTitle></dcTitle>
      </ccWork>
    </rdfRDF>
  </metadata>
  <g
     transform="translate(0,-164.70834)"
     id="layer1">
    <g
       transform="matrix(1.1819584,0,0,1.2005248,-558.22569,-136.15032)"
       id="layer1-7">
      <g
         transform="translate(428.42338,184.2561)"
         id="g1894">
        <path
           id="path8615"
           d="M 99.75,67.46875 C 71.718268,67.468752 73.46875,79.625 73.46875,79.625 L 73.5,92.21875 h 26.75 V 96 H 62.875 c 0,0 -17.9375,-2.034276 -17.9375,26.25 -2e-6,28.28427 15.65625,27.28125 15.65625,27.28125 h 9.34375 v -13.125 c 0,0 -0.503652,-15.65625 15.40625,-15.65625 15.9099,0 26.53125,0 26.53125,0 0,0 14.90625,0.24096 14.90625,-14.40625 0,-14.647206 0,-24.21875 0,-24.21875 0,-2e-6 2.26318,-14.65625 -27.03125,-14.65625 z M 85,75.9375 c 2.661429,-2e-6 4.8125,2.151071 4.8125,4.8125 2e-6,2.661429 -2.151071,4.8125 -4.8125,4.8125 -2.661429,2e-6 -4.8125,-2.151071 -4.8125,-4.8125 -2e-6,-2.661429 2.151071,-4.8125 4.8125,-4.8125 z"
           style="color:#000000;display:inline;overflow:visible;visibility:visible;opacity:1;fill:url(#linearGradient9521);fill-opacity:1;fill-rule:nonzero;stroke:none;stroke-width:1;stroke-linecap:butt;stroke-linejoin:miter;stroke-miterlimit:4;stroke-dasharray:none;stroke-dashoffset:0;stroke-opacity:1;marker:none;marker-start:none;marker-mid:none;marker-end:none" />
        <path
           style="color:#000000;display:inline;overflow:visible;visibility:visible;opacity:1;fill:url(#linearGradient11307);fill-opacity:1;fill-rule:nonzero;stroke:none;stroke-width:1;stroke-linecap:butt;stroke-linejoin:miter;stroke-miterlimit:4;stroke-dasharray:none;stroke-dashoffset:0;stroke-opacity:1;marker:none;marker-start:none;marker-mid:none;marker-end:none"
           d="m 100.5461,177.31485 c 28.03174,0 26.28125,-12.15625 26.28125,-12.15625 l -0.0312,-12.59375 h -26.75 v -3.78125 h 37.375 c 0,0 17.9375,2.03427 17.9375,-26.25001 10e-6,-28.284267 -15.65625,-27.281247 -15.65625,-27.281247 h -9.34375 v 13.124997 c 0,0 0.50366,15.65625 -15.40625,15.65625 -15.909902,0 -26.531252,0 -26.531252,0 0,0 -14.90625,-0.24096 -14.90625,14.40626 0,14.6472 0,24.21875 0,24.21875 0,0 -2.26318,14.65625 27.031252,14.65625 z m 14.75,-8.46875 c -2.66143,0 -4.8125,-2.15107 -4.8125,-4.8125 0,-2.66143 2.15107,-4.8125 4.8125,-4.8125 2.66143,0 4.8125,2.15107 4.8125,4.8125 1e-5,2.66143 -2.15107,4.8125 -4.8125,4.8125 z"
           id="path8620" />
      </g>
    </g>
  </g>
</svg>
